<?xml version="1.0" standalone="no"?>
<!DOCTYPE svg PUBLIC "-//W3C//DTD SVG 1.1//EN" "http://www.w3.org/Graphics/SVG/1.1/DTD/svg11.dtd" >
<svg xmlns="http://www.w3.org/2000/svg">
<metadata></metadata>
<defs>
<font id="sessionsregular" horiz-adv-x="509" >
<font-face units-per-em="2048" ascent="1638" descent="-410" />
<missing-glyph horiz-adv-x="262" />
<glyph horiz-adv-x="2048" />
<glyph horiz-adv-x="2048" />
<glyph unicode="&#xd;" horiz-adv-x="508" />
<glyph unicode=" "  horiz-adv-x="262" />
<glyph unicode="&#x09;" horiz-adv-x="262" />
<glyph unicode="&#xa0;" horiz-adv-x="262" />
<glyph unicode="!" horiz-adv-x="235" d="M60 0h115v165h-115v-165zM60 1435l7 -723l22 -453h56l23 453l7 723h-115z" />
<glyph unicode="&#x22;" horiz-adv-x="361" d="M60 1434l28 -264h54l28 264h-110zM195 1434l28 -264h54l28 264h-110z" />
<glyph unicode="#" horiz-adv-x="997" d="M62 525h217l-83 -525h114l83 525h147l-83 -525h115l83 525h217l18 115h-217l24 154h217l18 115h-216l83 525h-115l-83 -525h-147l83 525h-114l-83 -525h-217l-18 -115h217l-25 -154h-217zM412 640l24 154h147l-25 -154h-146z" />
<glyph unicode="$" horiz-adv-x="489" d="M62 182q0 -65 37 -117q36 -52 94 -71v-114h114v114q58 19 94 71q37 52 37 117v236q0 86 -132 324q-129 233 -129 305v204q0 34 21 59q22 24 52 24t52 -24q21 -25 21 -59v-159h115v159q0 65 -37 117q-36 52 -94 71v114h-114v-114q-58 -19 -94 -71q-37 -52 -37 -117v-204 q0 -101 144 -361q117 -212 117 -268v-236q0 -34 -21 -59q-22 -24 -52 -24q-31 0 -52 24q-21 25 -21 59v176h-115v-176z" />
<glyph unicode="%" horiz-adv-x="978" d="M57 1031q0 -82 58 -140t140 -58t140 58t58 140v219q0 82 -58 140t-140 58t-140 -58t-58 -140v-219zM94 -2l650 1435h124l-650 -1435h-124zM172 1031v219q0 35 24 59q24 25 59 25q34 0 59 -25q24 -24 24 -59v-219q0 -34 -24 -59q-25 -24 -59 -24q-35 0 -59 24 q-24 25 -24 59zM527 181q0 -82 58 -140t140 -58t140 58t58 140v219q0 82 -58 140t-140 58t-140 -58t-58 -140v-219zM642 181v219q0 34 24 59q25 24 59 24t59 -24q24 -25 24 -59v-219q0 -35 -24 -59q-25 -24 -59 -24t-59 24q-24 24 -24 59z" />
<glyph unicode="&#x26;" horiz-adv-x="572" d="M62 183q0 -82 58 -140t140 -58h198v676h56v114h-56v56h-115v-56h-83q-34 0 -59 25q-24 24 -24 59v394q0 34 24 59q25 24 59 24h141v115h-141q-82 0 -140 -58t-58 -140v-394q0 -83 59 -141q-59 -58 -59 -141v-394zM177 183v394q0 35 24 59q25 25 59 25h83v-561h-83 q-34 0 -59 24q-24 25 -24 59z" />
<glyph unicode="'" horiz-adv-x="226" d="M60 1434l28 -264h54l28 264h-110z" />
<glyph unicode="(" horiz-adv-x="354" d="M27 592q0 -371 129 -635q65 -133 151 -207v173q-26 38 -48 84q-118 241 -118 585q0 345 118 586q22 46 48 83v173q-86 -74 -151 -206q-129 -265 -129 -636z" />
<glyph unicode=")" horiz-adv-x="361" d="M48 -77v-173q86 74 151 207q129 264 129 635t-129 636q-65 132 -151 206v-173q26 -37 48 -83q117 -241 117 -586q0 -344 -117 -585q-22 -46 -48 -84z" />
<glyph unicode="*" horiz-adv-x="460" d="M61 1269l77 -25l-48 -65l93 -67l47 65l48 -65l92 67l-47 65l76 25l-35 109l-77 -25v81h-114v-81l-77 25z" />
<glyph unicode="+" horiz-adv-x="651" d="M60 423h204v-204h115v204h204v114h-204v204h-115v-204h-204v-114z" />
<glyph unicode="," horiz-adv-x="235" d="M13 -98l56 -100q106 59 106 199v164h-115v-164q1 -72 -47 -99z" />
<glyph unicode="-" horiz-adv-x="636" d="M60 423h523v114h-523v-114z" />
<glyph unicode="." horiz-adv-x="240" d="M60 0h115v165h-115v-165z" />
<glyph unicode="/" horiz-adv-x="651" d="M2 -194l461 1627h125l-462 -1627h-124z" />
<glyph unicode="0" horiz-adv-x="507" d="M59 181q0 -82 58 -140t140 -58t140 58t58 140v1069q0 82 -58 140t-140 58t-140 -58t-58 -140v-1069zM174 175l166 632v-626q0 -35 -24 -59q-25 -24 -59 -24q-33 0 -57 22t-26 55zM174 624v626q0 35 24 59q24 25 59 25q33 0 57 -23q24 -22 26 -55z" />
<glyph unicode="1" horiz-adv-x="317" d="M59 1237q44 0 83 19v-1256h115v1435h-115q0 -34 -24 -59q-25 -24 -59 -24v-115z" />
<glyph unicode="2" horiz-adv-x="490" d="M63 0v387q0 101 144 361q117 212 117 269v235q0 35 -21 59q-22 25 -52 25t-52 -25q-21 -24 -21 -59v-175h-115v175q0 82 55 140t133 58t133 -58t55 -140v-235q0 -87 -132 -324q-129 -234 -129 -306v-272h243v-115h-358z" />
<glyph unicode="3" horiz-adv-x="483" d="M58 183q0 -82 58 -140t140 -58t140 58t58 140v394q0 82 -59 141q59 58 59 140v394q0 82 -58 140t-140 58t-140 -58t-58 -140v-159h115v159q0 35 24 59q24 25 59 25q34 0 59 -25q24 -24 24 -59v-394q0 -34 -24 -59q-25 -24 -59 -24h-70v-115h70q34 0 59 -24q24 -25 24 -59 v-394q0 -35 -24 -59q-25 -24 -59 -24q-35 0 -59 24t-24 59v176h-115v-176z" />
<glyph unicode="4" horiz-adv-x="481" d="M21 347h287v-347h114v1434h-114v-973h-158l118 973h-115z" />
<glyph unicode="5" horiz-adv-x="435" d="M36 80l98 60q24 -40 71 -40q35 0 59 24t24 59v595q0 35 -24 59q-24 25 -59 25h-166l3 573h331v-115h-217l-1 -344h50q82 0 140 -58t58 -140v-595q0 -82 -58 -140t-140 -58q-111 0 -169 95z" />
<glyph unicode="6" horiz-adv-x="450" d="M30 184q0 -82 58 -140t140 -58t140 58t58 140v595q0 82 -58 140t-140 58q-44 0 -83 -18v294q0 35 24 59q24 25 59 25q47 0 71 -40l98 59q-58 95 -169 95q-82 0 -140 -58t-58 -140v-1069zM145 184v595q0 35 24 59q24 25 59 25q34 0 59 -25q24 -24 24 -59v-595 q0 -35 -24 -59q-25 -24 -59 -24q-35 0 -59 24t-24 59z" />
<glyph unicode="7" horiz-adv-x="450" d="M29 1319v115h390v-174q0 -76 -74 -484q-79 -437 -79 -517v-259h-115v259q0 91 82 538q72 397 72 463v59h-276z" />
<glyph unicode="8" horiz-adv-x="450" d="M31 183q0 -82 58 -140t140 -58t140 58t58 140v595q0 85 -62 144q62 58 62 143v187q0 82 -58 140t-140 58t-140 -58t-58 -140v-187q0 -85 62 -143q-62 -59 -62 -144v-595zM146 183v595q0 35 24 59q24 25 59 25q34 0 59 -25q24 -24 24 -59v-595q0 -35 -24 -59 q-25 -24 -59 -24q-35 0 -59 24t-24 59zM146 1065v187q0 35 24 59q24 25 59 25q34 0 59 -25q24 -24 24 -59v-187q0 -35 -24 -59q-25 -24 -59 -24q-35 0 -59 24t-24 59z" />
<glyph unicode="9" horiz-adv-x="455" d="M30 658q0 -82 58 -140t140 -58q44 0 83 18v-294q0 -35 -24 -59q-25 -24 -59 -24q-47 0 -71 40l-98 -60q58 -95 169 -95q82 0 140 58t58 140v1069q0 82 -58 140t-140 58t-140 -58t-58 -140v-595zM145 658v595q0 35 24 59q24 25 59 25q34 0 59 -25q24 -24 24 -59v-595 q0 -35 -24 -59q-25 -24 -59 -24q-35 0 -59 24t-24 59z" />
<glyph unicode=":" horiz-adv-x="235" d="M60 0h115v165h-115v-165zM60 795h115v165h-115v-165z" />
<glyph unicode=";" horiz-adv-x="557" d="M13 -98l56 -100q106 59 106 199v164h-115v-164q1 -72 -47 -99zM60 795h115v165h-115v-165z" />
<glyph unicode="&#x3c;" horiz-adv-x="792" d="M59 365l668 -110q-1 19 0 58v58l-553 101l553 117v116l-668 -129v-211z" />
<glyph unicode="=" horiz-adv-x="636" d="M60 289h523v114h-523v-114zM60 557h523v114h-523v-114z" />
<glyph unicode="&#x3e;" horiz-adv-x="785" d="M59 255l668 110v211l-668 129v-116l553 -117l-553 -101v-58v-58z" />
<glyph unicode="?" horiz-adv-x="503" d="M65 1094v159q0 82 55 140t133 58t133 -58t55 -140v-204q0 -94 -70 -349q-59 -217 -59 -281v-160h-115v160q0 79 64 311q65 240 65 319v204q0 34 -21 59q-22 24 -52 24t-52 -24q-21 -25 -21 -59v-159h-115zM197 0h115v165h-115v-165z" />
<glyph unicode="@" horiz-adv-x="1231" d="M69 610q-37 -227 98 -389q135 -161 362 -161l19 114q-180 0 -287 128t-77 308q29 180 178 308t329 128t287 -128q106 -128 77 -308q-39 -239 -264 -368q-43 -22 -52 2q-5 11 0 27l127 690h-115l-1 -3q-36 18 -79 18q-82 0 -151 -58t-84 -140l-58 -316q-15 -82 33 -140 q47 -58 129 -58q43 0 86 19l-2 -12q-23 -159 96 -156q60 1 124 34q127 75 213 195q89 124 112 266q38 227 -97 389q-135 161 -363 161q-227 0 -415 -161q-187 -162 -225 -389zM493 462l58 316q6 35 35 59q29 25 64 25q34 0 54 -25q20 -24 13 -58l-58 -317q-6 -35 -35 -59 t-63 -24q-35 0 -55 24q-19 24 -13 59z" />
<glyph unicode="A" horiz-adv-x="503" d="M21 0h115l25 344h175l35 -344h115l-147 1434h-211zM170 459l65 860l89 -860h-154z" />
<glyph unicode="B" horiz-adv-x="507" d="M61 0v1435h227h9q63 0 108 -42q52 -48 52 -134v-422q0 -73 -38 -119q38 -47 38 -119v-423q0 -86 -52 -134q-45 -42 -112 -42h-232zM176 115h117q22 0 35 12q14 14 14 49v423q0 36 -15 50q-11 10 -32 11h-119v-545zM176 775h117q22 0 35 12q14 14 14 50v422q0 35 -14 50 q-13 11 -35 12l-2 -1l-1 1h-114v-546z" />
<glyph unicode="C" horiz-adv-x="507" d="M61 183v1070q0 81 58 139q58 59 140 59t140 -59q58 -58 58 -139v-160h-115v160q0 34 -24 58q-25 25 -59 25t-59 -25q-24 -24 -24 -58v-1070q0 -35 24 -59q25 -24 59 -24t59 24q24 24 24 59v176h115v-176q0 -82 -58 -140t-140 -58t-140 58t-58 140z" />
<glyph unicode="D" horiz-adv-x="502" d="M59 0v1434h232q67 0 112 -42q51 -49 51 -134v-1082q0 -85 -51 -134q-45 -42 -112 -42h-5h-227zM173 115l118 -1q49 1 49 62v1082q0 62 -49 62l-3 -1h-1h-114v-1204z" />
<glyph unicode="E" horiz-adv-x="433" d="M60 0h351v114h-237v546h177v114h-177v546h237v114h-351v-1434z" />
<glyph unicode="F" horiz-adv-x="412" d="M60 0h115v660h176v115h-176v545h236v115h-351v-1435z" />
<glyph unicode="G" horiz-adv-x="493" d="M58 183q0 -82 58 -140t140 -58q44 0 83 18v-3h115v774h-198v-114h83v-477q0 -35 -24 -59q-25 -24 -59 -24q-35 0 -59 24t-24 59v1069q0 34 24 59q24 24 59 24q34 0 59 -24q24 -25 24 -59v-160h115v160q0 81 -58 139t-140 58t-140 -58t-58 -139v-1069z" />
<glyph unicode="H" d="M62 0h115v660h166v-660h115v1435h-115v-660h-166v660h-115v-1435z" />
<glyph unicode="I" horiz-adv-x="233" d="M60 0h115v1434h-115v-1434z" />
<glyph unicode="J" horiz-adv-x="421" d="M1 80l98 60q24 -40 71 -40q35 0 59 24t24 59v1252h115v-1252q0 -82 -58 -140t-140 -58q-111 0 -169 95z" />
<glyph unicode="K" horiz-adv-x="548" d="M62 0h115v457l33 93l195 -550h122l-256 721l253 714h-121l-226 -636v636h-115v-1435z" />
<glyph unicode="L" horiz-adv-x="460" d="M60 0h351v114h-237v1320h-114v-1434z" />
<glyph unicode="M" horiz-adv-x="750" d="M61 0h115v769l146 -769h113l146 769v-769h114v1435h-104l-213 -1119l-212 1119h-105v-1435z" />
<glyph unicode="N" horiz-adv-x="545" d="M60 0h115v939l194 -939h131v1435h-114v-949l-197 949h-129v-1435z" />
<glyph unicode="O" horiz-adv-x="511" d="M60 185v1069q0 82 58 140t140 58t140 -58t58 -140v-1069q0 -82 -58 -140t-140 -58t-140 58t-58 140zM175 185q0 -35 24 -59t59 -24q34 0 59 24q24 24 24 59v1069q0 35 -24 59q-25 24 -59 24q-35 0 -59 -24t-24 -59v-1069z" />
<glyph unicode="P" horiz-adv-x="480" d="M59 0v1435h227h9q63 0 108 -42q52 -48 52 -134v-422q0 -86 -52 -134q-46 -43 -111 -43h-6h-112v-660h-115zM174 775h117q22 0 35 12q14 14 14 50v422q0 35 -14 49q-13 12 -35 12h-2h-1h-114v-545z" />
<glyph unicode="Q" horiz-adv-x="507" d="M61 184q0 -82 58 -140t140 -58q53 0 98 26l11 -11h154l-86 95q21 42 21 88v1068q0 82 -58 140t-140 58t-140 -58t-58 -140v-1068zM176 184v31l101 -113q-9 -1 -18 -1q-35 0 -59 24t-24 59zM176 386v866q0 35 24 59t59 24q34 0 59 -24q24 -24 24 -59v-1051z" />
<glyph unicode="R" horiz-adv-x="523" d="M59 0h115v660h61l120 -660h117l-123 670q31 11 54 32q52 48 52 134v422q0 86 -52 134q-46 42 -111 42h-6h-227v-1434zM174 774v545h113h2h2q22 0 34 -12q15 -14 15 -49v-422q0 -36 -15 -50q-12 -12 -34 -12h-117z" />
<glyph unicode="S" horiz-adv-x="480" d="M60 183v176h115v-176q0 -35 21 -59q22 -24 52 -24t52 24q21 24 21 59v235q0 57 -117 269q-144 260 -144 361v204q0 82 55 140t133 58t133 -58t55 -140v-159h-115v159q0 34 -21 59q-22 24 -52 24t-52 -24q-21 -25 -21 -59v-204q0 -72 129 -305q132 -238 132 -325v-235 q0 -82 -55 -140t-133 -58t-133 58t-55 140z" />
<glyph unicode="T" horiz-adv-x="435" d="M20 1320h140v-1320h115v1320h140v114h-395v-114z" />
<glyph unicode="U" horiz-adv-x="507" d="M59 183v1253h115v-1253q0 -34 24 -59q25 -24 59 -24q35 0 59 24q24 25 24 59v1253h115v-1253q0 -82 -58 -140t-140 -58t-140 58t-58 140z" />
<glyph unicode="V" horiz-adv-x="507" d="M21 1434l147 -1434h212l106 1434h-114l-99 -1319h-2l-135 1319h-115z" />
<glyph unicode="W" horiz-adv-x="869" d="M21 1435l213 -1435h112l87 587l88 -587h111l214 1435h-116l-154 -1034l-153 1034h-116l68 -460h-1l-84 -570l-153 1030h-116z" />
<glyph unicode="X" horiz-adv-x="474" d="M22 0h117l100 457l99 -457h118l-158 727l154 707h-117l-95 -437l-95 437h-118l154 -707z" />
<glyph unicode="Y" horiz-adv-x="502" d="M22 1435l172 -813v-622h114v622l172 813h-117l-112 -529l-112 529h-117z" />
<glyph unicode="Z" horiz-adv-x="460" d="M45 0h362v115h-225l236 1320h-362v-115h225z" />
<glyph unicode="[" horiz-adv-x="249" d="M20 -226h206v114h-91v1432h91v114h-206v-1660z" />
<glyph unicode="\" horiz-adv-x="498" d="M30 1492l316 -1547h120l-317 1547h-119z" />
<glyph unicode="]" horiz-adv-x="255" d="M20 -112v-114h206v1660h-206v-114h92v-1432h-92z" />
<glyph unicode="^" d="M51 1188h110l96 156l96 -156h110l-151 246h-110z" />
<glyph unicode="_" horiz-adv-x="636" d="M60 -112v-114h523v114h-523z" />
<glyph unicode="`" horiz-adv-x="382" d="M89 1434l152 -246h54l-95 246h-111z" />
<glyph unicode="a" horiz-adv-x="502" d="M59 183q0 -82 58 -140t140 -58q43 0 83 18v-3h114v777q0 82 -58 140t-139 58q-82 0 -140 -58t-58 -140v-55h114v55q0 35 25 59q24 25 59 25q34 0 59 -25q24 -24 24 -59v-100q-39 19 -83 19q-82 0 -140 -58t-58 -140v-315zM173 183v315q0 34 25 59q24 24 59 24 q34 0 59 -24q24 -25 24 -59v-315q0 -35 -24 -59q-25 -25 -59 -25q-35 0 -59 25q-25 24 -25 59z" />
<glyph unicode="b" horiz-adv-x="504" d="M59 1h115v3q39 -18 83 -18q82 0 140 58t58 140v596q0 82 -58 140t-140 58q-44 0 -83 -18v477h-115v-1436zM174 184v596q0 34 24 59q25 24 59 24q35 0 59 -24q24 -25 24 -59v-596q0 -34 -24 -59q-24 -24 -59 -24q-34 0 -59 24q-24 25 -24 59z" />
<glyph unicode="c" horiz-adv-x="502" d="M55 183v594q0 82 58 140t140 58q81 0 139 -58t58 -140v-57h-114v57q0 35 -24 59q-25 25 -59 25q-35 0 -59 -25q-25 -24 -25 -59v-594q0 -35 25 -59q24 -25 59 -25q34 0 59 25q24 24 24 59v57h114v-57q0 -82 -58 -140t-139 -58q-82 0 -140 58t-58 140z" />
<glyph unicode="d" horiz-adv-x="502" d="M59 184q0 -82 58 -140t140 -58q44 0 83 18v-3h115v1436h-115v-477q-39 18 -83 18q-82 0 -140 -58t-58 -140v-596zM174 184v596q0 34 24 59q25 24 59 24q35 0 59 -24q24 -25 24 -59v-596q0 -34 -24 -59q-24 -24 -59 -24q-34 0 -59 24q-24 25 -24 59z" />
<glyph unicode="e" d="M60 184v596q0 81 58 139t140 58t140 -58t58 -139v-356h-281v-240q0 -34 24 -59q25 -24 59 -24t59 24q24 25 24 59v57h115v-57q0 -82 -58 -140t-140 -58t-140 58t-58 140zM175 539h166v241q0 34 -24 58q-25 25 -59 25t-59 -25q-24 -24 -24 -58v-241z" />
<glyph unicode="f" horiz-adv-x="410" d="M58 0h115v724h181v114h-181v415q0 34 24 59q25 24 59 24q47 0 71 -40l98 60q-58 95 -169 95q-82 0 -140 -58t-58 -140v-1253z" />
<glyph unicode="g" horiz-adv-x="498" d="M59 183q0 -81 58 -139t140 -58q43 0 83 18v-204q0 -35 -24 -59q-25 -25 -59 -25q-47 0 -71 41l-98 -60q58 -95 169 -95q81 0 139 58t58 140v1161h-114v-4q-40 19 -83 19q-82 0 -140 -58t-58 -140v-595zM173 183v595q0 34 25 59q24 24 59 24q34 0 59 -24q24 -25 24 -59 v-595q0 -34 -24 -58q-25 -25 -59 -25q-35 0 -59 25q-25 24 -25 58z" />
<glyph unicode="h" horiz-adv-x="507" d="M59 0h115v778q0 34 24 58q24 25 59 25q34 0 59 -25q24 -24 24 -58v-778h115v778q0 81 -58 139t-140 58q-44 0 -83 -18v477h-115v-1434z" />
<glyph unicode="i" horiz-adv-x="226" d="M59 0v960h115v-960h-115zM59 1377q0 -24 17 -41t40 -17q24 0 41 17t17 41q0 23 -17 40t-41 17q-23 0 -40 -17t-17 -40z" />
<glyph unicode="j" horiz-adv-x="226" d="M-193 -303l98 59q24 -40 71 -40q34 0 59 25q24 24 24 59v1160h115v-1160q0 -82 -58 -140t-140 -58q-111 0 -169 95zM59 1377q0 -24 17 -41t40 -17q24 0 41 17t17 41q0 23 -17 40t-41 17q-23 0 -40 -17t-17 -40z" />
<glyph unicode="k" horiz-adv-x="516" d="M60 0h115v222l50 118l143 -340h125l-206 488l200 473h-125l-181 -430l-6 -2v906h-115v-1435z" />
<glyph unicode="l" horiz-adv-x="238" d="M60 0h115v1434h-115v-1434z" />
<glyph unicode="m" horiz-adv-x="786" d="M61 0h114v777q0 35 25 59q24 25 59 25q34 0 59 -25q24 -24 24 -59v-777h114v777q0 35 25 59q24 25 59 25q34 0 58 -25q25 -24 25 -59v-777h114v777q0 82 -58 140t-139 58q-83 0 -141 -59q-58 59 -140 59q-44 0 -84 -18v3h-114v-960z" />
<glyph unicode="n" horiz-adv-x="495" d="M60 0h114v777q0 35 25 59q24 25 59 25q34 0 59 -25q24 -24 24 -59v-777h114v777q0 82 -58 140t-139 58q-44 0 -84 -18v3h-114v-960z" />
<glyph unicode="o" d="M61 182v594q0 82 58 140t140 58q81 0 139 -58t58 -140v-594q0 -82 -58 -140t-139 -58q-82 0 -140 58t-58 140zM175 182q0 -35 25 -59q24 -25 59 -25q34 0 59 25q24 24 24 59v594q0 35 -24 59q-25 25 -59 25q-35 0 -59 -25q-25 -24 -25 -59v-594z" />
<glyph unicode="p" horiz-adv-x="502" d="M60 -401h114v402q40 -18 84 -18q81 0 139 58t58 139v595q0 82 -58 140t-139 58q-44 0 -84 -19v4h-114v-1359zM174 180v595q0 35 25 59q24 24 59 24q34 0 59 -24q24 -24 24 -59v-595q0 -34 -24 -58q-25 -25 -59 -25q-35 0 -59 25q-25 24 -25 58z" />
<glyph unicode="q" horiz-adv-x="502" d="M60 180q0 -81 58 -139t140 -58q43 0 83 18v-402h114v1359h-114v-4q-40 19 -83 19q-82 0 -140 -58t-58 -140v-595zM174 180v595q0 35 25 59q24 24 59 24q34 0 59 -24q24 -24 24 -59v-595q0 -34 -24 -58q-25 -25 -59 -25q-35 0 -59 25q-25 24 -25 58z" />
<glyph unicode="r" horiz-adv-x="403" d="M60 0h115v778q0 34 24 59q24 24 59 24q47 0 71 -40l98 60q-58 95 -169 95q-44 0 -83 -19v4h-115v-961z" />
<glyph unicode="s" horiz-adv-x="492" d="M60 133v114h114v-114q0 -10 20 -21q23 -13 54 -13q30 0 53 13q20 11 20 21v153q-1 27 -111 155q-150 176 -150 254v132q0 62 54 105q55 43 134 43t133 -43q55 -43 55 -105v-103h-115v103q0 10 -20 21q-23 13 -53 13q-31 0 -54 -13q-20 -11 -20 -21v-132q0 -35 123 -179 q139 -162 139 -230v-153q0 -62 -55 -105q-54 -43 -133 -43t-134 43q-54 43 -54 105z" />
<glyph unicode="t" horiz-adv-x="410" d="M62 183q0 -82 58 -140t140 -58q111 0 169 95l-98 60q-24 -40 -71 -40q-35 0 -59 24t-24 59v663h180v114h-180v367h-115v-1144z" />
<glyph unicode="u" horiz-adv-x="502" d="M59 183q0 -82 58 -140t140 -58q44 0 83 18v-3h115v961h-115v-778q0 -35 -24 -59q-25 -24 -59 -24q-35 0 -59 24t-24 59v778h-115v-778z" />
<glyph unicode="v" horiz-adv-x="424" d="M21 958l98 -958h212l71 958h-115l-63 -843h-2l-86 843h-115z" />
<glyph unicode="w" horiz-adv-x="771" d="M20 958l142 -958h155l65 440l66 -440h155l143 958h-115l-105 -704l-105 704h-116l20 -131h-1l-84 -569l-104 700h-116z" />
<glyph unicode="x" horiz-adv-x="436" d="M18 0h119l81 276l81 -276h119l-140 480l139 478h-119l-80 -274l-80 274h-119l139 -478z" />
<glyph unicode="y" horiz-adv-x="498" d="M58 182q0 -81 58 -139t140 -58q44 0 83 18v-204q0 -35 -24 -59q-25 -25 -59 -25q-47 0 -71 40l-98 -59q58 -95 169 -95q82 0 140 58t58 140v1161h-115v-778q0 -34 -24 -58q-25 -25 -59 -25q-35 0 -59 25q-24 24 -24 58v778h-115v-778z" />
<glyph unicode="z" horiz-adv-x="471" d="M45 0h369v115h-218l236 846h-369v-115h218z" />
<glyph unicode="{" horiz-adv-x="421" d="M44 603q3 -1 7 -2q13 -8 25 -13q40 -24 59 -106q15 -67 38 -290q22 -208 137 -334q57 -63 110 -84q-31 32 -65 104q-69 144 -84 344q-18 225 -29 267q-17 59 -86 112q69 52 85 113q12 42 30 272q24 320 149 448q-53 -21 -110 -84q-115 -126 -137 -334q-23 -224 -41 -298 q-21 -80 -63 -103q-8 -3 -17 -7q-4 -2 -8 -3l1 -1z" />
<glyph unicode="|" horiz-adv-x="232" d="M60 -416h115v1980h-115v-1980z" />
<glyph unicode="}" horiz-adv-x="417" d="M1 -226q53 21 110 84q115 126 136 334q24 223 39 290q19 82 59 106q12 5 25 13q3 1 7 2l-1 1l1 1q-4 1 -8 3q-9 4 -17 7q-42 23 -63 103q-18 74 -42 298q-21 208 -136 334q-57 63 -110 84q125 -128 149 -448q18 -230 30 -272q16 -61 85 -113q-69 -53 -86 -112 q-11 -42 -29 -267q-15 -200 -84 -344q-34 -72 -65 -104z" />
<glyph unicode="~" horiz-adv-x="516" d="M93 1336q28 48 81 55q56 9 112 -44q23 -21 36 -18q15 3 25 24l76 -34q-28 -61 -85 -72q-9 -2 -18 -2q-46 0 -90 41q-27 25 -44 23q-13 -2 -21 -15z" />
<glyph unicode="&#xa1;" horiz-adv-x="231" d="M60 -480h115l-7 723l-23 453h-56l-22 -453zM60 790h115v165h-115v-165z" />
<glyph unicode="&#xa2;" horiz-adv-x="504" d="M59 490q0 -67 41 -120q40 -53 103 -70v-147h114v149q61 19 99 70q38 53 38 118v57h-114v-57q0 -35 -24 -59q-25 -24 -59 -24q-35 0 -59 24q-25 24 -25 59v595q0 34 25 58q24 25 59 25q34 0 59 -25q24 -24 24 -58v-58h114v58q0 65 -38 117q-38 51 -99 71v161h-114v-159 q-63 -18 -103 -70q-41 -53 -41 -120v-595z" />
<glyph unicode="&#xa3;" horiz-adv-x="460" d="M63 0h296v115h-181v608h181v115h-181v414q0 35 24 59t59 24q47 0 71 -40l98 60q-58 95 -169 95q-82 0 -140 -58t-58 -140v-1252z" />
<glyph unicode="&#xa4;" horiz-adv-x="1014" />
<glyph unicode="&#xa5;" horiz-adv-x="502" d="M22 1434l118 -557h-84v-115h108l19 -90h-127v-115h138v-557h114v557h137v115h-126l19 90h107v115h-83l118 557h-117l-112 -529l-112 529h-117z" />
<glyph unicode="&#xa6;" horiz-adv-x="1014" d="M60 -176h115v679h-115v-679zM60 885h115v679h-115v-679z" />
<glyph unicode="&#xa7;" horiz-adv-x="487" d="M59 138q0 -62 54 -105q55 -43 134 -43t133 43q55 43 55 105v153q0 64 -96 180q96 41 96 130v153q0 67 -139 229q-122 144 -122 179v132q0 11 19 22q23 12 54 12q30 0 53 -12q20 -11 20 -22v-103h115v103q0 63 -55 106q-54 43 -133 43t-134 -43q-54 -43 -54 -106v-132 q0 -72 103 -197q-103 -40 -103 -133v-132q0 -78 150 -254q110 -128 111 -155v-153q0 -10 -20 -21q-23 -12 -53 -12q-31 0 -54 12q-19 11 -19 21v114h-115v-114zM174 700v132q0 10 19 21q22 13 52 13q74 -89 75 -112v-153q0 -10 -17 -20q-19 -12 -46 -14q-83 101 -83 133z " />
<glyph unicode="&#xa8;" horiz-adv-x="502" d="M130 1313q0 -24 17 -41t40 -17q24 0 41 17t17 41q0 23 -17 40t-41 17q-23 0 -40 -17t-17 -40zM271 1313q0 -24 17 -41t40 -17q24 0 41 17t17 41q0 23 -17 40t-41 17q-23 0 -40 -17t-17 -40z" />
<glyph unicode="&#xa9;" horiz-adv-x="917" d="M62 939q0 -208 111 -357q118 -156 288 -156t287 156q111 149 111 357t-111 357q-117 156 -287 156t-288 -156q-111 -149 -111 -357zM177 939q0 170 88 288q83 111 196 111q112 0 195 -111q88 -118 88 -288t-88 -288q-83 -110 -195 -110q-113 0 -196 110q-88 118 -88 288z M300 712v454q0 50 46 84q46 33 115 33q68 0 114 -33q46 -34 46 -84v-67h-115v59q-16 11 -45 11q-30 0 -46 -11v-438q16 -11 46 -11q29 0 45 11v67h115v-75q0 -50 -46 -84q-46 -33 -114 -33q-69 0 -115 33q-46 34 -46 84z" />
<glyph unicode="&#xaa;" horiz-adv-x="648" />
<glyph unicode="&#xab;" horiz-adv-x="686" d="M58 480l213 -183h155l-214 183l214 183h-155zM263 480l213 -183h155l-214 183l214 183h-155z" />
<glyph unicode="&#xac;" horiz-adv-x="1014" />
<glyph unicode="&#xad;" horiz-adv-x="636" d="M60 423h523v114h-523v-114z" />
<glyph unicode="&#xae;" horiz-adv-x="917" d="M60 938q0 207 111 356q117 156 287 156t287 -156q111 -149 111 -356q0 -208 -111 -357q-117 -156 -287 -156t-287 156q-111 149 -111 357zM174 938q0 -170 89 -288q83 -111 195 -111q113 0 195 111q89 118 89 288q0 169 -89 287q-82 111 -195 111q-112 0 -195 -111 q-89 -118 -89 -287zM309 617h114v247h19l76 -247h120l-80 260q21 8 35 22q30 29 30 73v179q0 43 -30 72q-39 38 -106 36h-178v-642zM423 978v166h67q9 1 19 -2v-161q-10 -3 -19 -3h-67z" />
<glyph unicode="&#xaf;" horiz-adv-x="670" />
<glyph unicode="&#xb0;" horiz-adv-x="674" />
<glyph unicode="&#xb1;" horiz-adv-x="1014" />
<glyph unicode="&#xb2;" horiz-adv-x="1014" />
<glyph unicode="&#xb3;" horiz-adv-x="1014" />
<glyph unicode="&#xb4;" horiz-adv-x="375" d="M83 1188h54l152 246h-111z" />
<glyph unicode="&#xb5;" horiz-adv-x="1180" />
<glyph unicode="&#xb6;" horiz-adv-x="1024" />
<glyph unicode="&#xb7;" horiz-adv-x="508" />
<glyph unicode="&#xb8;" horiz-adv-x="336" d="M103 5h88v-39q50 -27 50 -84v-45q0 -39 -27 -67q-28 -28 -67 -28h-44v88h44q7 0 7 7v45q0 7 -7 7h-44v116z" />
<glyph unicode="&#xb9;" horiz-adv-x="1014" />
<glyph unicode="&#xba;" horiz-adv-x="718" />
<glyph unicode="&#xbb;" horiz-adv-x="686" d="M58 297h154l214 183l-214 183h-154l213 -183zM263 297h154l214 183l-214 183h-154l213 -183z" />
<glyph unicode="&#xbc;" horiz-adv-x="1708" />
<glyph unicode="&#xbd;" horiz-adv-x="1964" />
<glyph unicode="&#xbe;" horiz-adv-x="1708" />
<glyph unicode="&#xbf;" horiz-adv-x="495" d="M60 -95q0 94 70 349q59 217 59 281v160h115v-160q0 -79 -64 -311q-65 -240 -65 -319v-204q0 -34 21 -59q22 -24 52 -24t52 24q21 25 21 59v159h115v-159q0 -82 -55 -140t-133 -58t-133 58t-55 140v204zM189 789h115v165h-115v-165z" />
<glyph unicode="&#xc0;" d="M21 0h115l25 344h175l35 -344h115l-147 1434h-211zM59 1717l153 -246h53l-95 246h-111zM170 459l65 860l89 -860h-154z" />
<glyph unicode="&#xc1;" d="M21 0h115l25 344h175l35 -344h115l-147 1434h-211zM170 459l65 860l89 -860h-154zM211 1471h54l152 246h-110z" />
<glyph unicode="&#xc2;" d="M21 0h115l25 344h175l35 -344h115l-147 1434h-211zM29 1471h110l96 156l96 -156h110l-151 246h-110zM170 459l65 860l89 -860h-154z" />
<glyph unicode="&#xc3;" horiz-adv-x="516" d="M21 0h115l25 344h175l35 -344h115l-147 1434h-211zM77 1591q28 48 81 55q56 9 112 -44q23 -21 36 -18q15 3 25 24l76 -34q-28 -61 -85 -72q-9 -2 -18 -2q-46 0 -90 41q-27 25 -44 23q-13 -2 -21 -15zM170 459l65 860l89 -860h-154z" />
<glyph unicode="&#xc4;" d="M21 0h115l25 344h175l35 -344h115l-147 1434h-211zM110 1595q0 -24 17 -41t40 -17q24 0 41 17t17 41q0 23 -17 40t-41 17q-23 0 -40 -17t-17 -40zM170 459l65 860l89 -860h-154zM251 1595q0 -24 17 -41t40 -17q24 0 41 17t17 41q0 23 -17 40t-41 17q-23 0 -40 -17 t-17 -40z" />
<glyph unicode="&#xc5;" d="M21 0h115l25 344h175l35 -344h115l-147 1434h-211zM127 1605q0 44 31 76q32 31 76 31t76 -31q31 -32 31 -76t-31 -76q-32 -31 -76 -31t-76 31q-31 32 -31 76zM170 459l65 860l89 -860h-154zM212 1605q0 -22 22 -22t22 22t-22 22t-22 -22z" />
<glyph unicode="&#xc6;" horiz-adv-x="615" d="M22 0h115l25 345h74v-345h321v115h-206v546h147v114h-147v546h206v115h-428zM171 460l65 861v-861h-65z" />
<glyph unicode="&#xc7;" horiz-adv-x="516" d="M61 186q0 -146 140 -189v-108h44q6 0 6 -7v-45q0 -7 -6 -7h-44v-88h44q39 0 66 28q28 28 28 67v45q0 57 -51 84v25q72 10 120 66q48 55 48 129v175h-114v-175q0 -83 -83 -83q-84 0 -84 83v1067q0 84 84 84q83 0 83 -84v-159h114v159q0 82 -58 140t-139 58q-82 0 -140 -58 t-58 -140v-1067z" />
<glyph unicode="&#xc8;" horiz-adv-x="432" d="M59 1717l152 -246h54l-95 246h-111zM60 0h351v114h-237v546h177v114h-177v546h237v114h-351v-1434z" />
<glyph unicode="&#xc9;" horiz-adv-x="431" d="M60 0h351v114h-237v546h177v114h-177v546h237v114h-351v-1434zM211 1471h54l152 246h-110z" />
<glyph unicode="&#xca;" horiz-adv-x="424" d="M29 1471h110l96 156l96 -156h110l-151 246h-110zM60 0h351v114h-237v546h177v114h-177v546h237v114h-351v-1434z" />
<glyph unicode="&#xcb;" horiz-adv-x="431" d="M60 0h351v114h-237v546h177v114h-177v546h237v114h-351v-1434zM110 1595q0 -24 17 -41t40 -17q24 0 41 17t17 41q0 23 -17 40t-41 17q-23 0 -40 -17t-17 -40zM251 1595q0 -24 17 -41t40 -17q24 0 41 17t17 41q0 23 -17 40t-41 17q-23 0 -40 -17t-17 -40z" />
<glyph unicode="&#xcc;" horiz-adv-x="240" d="M-68 1717l152 -246h54l-95 246h-111zM60 0h115v1434h-115v-1434z" />
<glyph unicode="&#xcd;" horiz-adv-x="233" d="M60 0h115v1434h-115v-1434zM91 1471h54l152 246h-110z" />
<glyph unicode="&#xce;" horiz-adv-x="240" d="M-91 1475h110l96 156l96 -156h110l-151 246h-110zM60 0h115v1434h-115v-1434z" />
<glyph unicode="&#xcf;" horiz-adv-x="233" d="M-12 1595q0 -24 17 -41t40 -17q24 0 41 17t17 41q0 23 -17 40t-41 17q-23 0 -40 -17t-17 -40zM60 0h115v1434h-115v-1434zM129 1595q0 -24 17 -41t40 -17q24 0 41 17t17 41q0 23 -17 40t-41 17q-23 0 -40 -17t-17 -40z" />
<glyph unicode="&#xd0;" horiz-adv-x="526" d="M-5 846h74v-846h227h5q67 0 112 42q52 49 52 134v1082q0 85 -52 134q-45 42 -112 42h-232v-474h-74v-114zM184 115v731h109v114h-109v359h114h1l2 1q49 0 49 -62v-1082q0 -61 -49 -62z" />
<glyph unicode="&#xd1;" horiz-adv-x="552" d="M60 0h115v939l194 -939h131v1435h-114v-949l-197 949h-129v-1435zM115 1591q28 48 81 55q57 9 113 -44q22 -21 35 -18q15 3 25 24l76 -34q-28 -61 -84 -72q-10 -2 -19 -2q-46 0 -90 41q-27 25 -44 23q-13 -2 -21 -15z" />
<glyph unicode="&#xd2;" horiz-adv-x="502" d="M60 185v1069q0 82 58 140t140 58t140 -58t58 -140v-1069q0 -82 -58 -140t-140 -58t-140 58t-58 140zM89 1717l153 -246h53l-95 246h-111zM175 185q0 -35 24 -59t59 -24q34 0 59 24q24 24 24 59v1069q0 35 -24 59q-25 24 -59 24q-35 0 -59 -24t-24 -59v-1069z" />
<glyph unicode="&#xd3;" horiz-adv-x="502" d="M60 185v1069q0 82 58 140t140 58t140 -58t58 -140v-1069q0 -82 -58 -140t-140 -58t-140 58t-58 140zM175 185q0 -35 24 -59t59 -24q34 0 59 24q24 24 24 59v1069q0 35 -24 59q-25 24 -59 24q-35 0 -59 -24t-24 -59v-1069zM226 1471h54l152 246h-110z" />
<glyph unicode="&#xd4;" horiz-adv-x="502" d="M51 1471h110l96 156l96 -156h110l-151 246h-110zM60 185v1069q0 82 58 140t140 58t140 -58t58 -140v-1069q0 -82 -58 -140t-140 -58t-140 58t-58 140zM175 185q0 -35 24 -59t59 -24q34 0 59 24q24 24 24 59v1069q0 35 -24 59q-25 24 -59 24q-35 0 -59 -24t-24 -59v-1069z " />
<glyph unicode="&#xd5;" horiz-adv-x="502" d="M60 185v1069q0 82 58 140t140 58t140 -58t58 -140v-1069q0 -82 -58 -140t-140 -58t-140 58t-58 140zM93 1591q28 48 81 55q57 9 113 -44q22 -21 35 -18q15 3 25 24l76 -34q-28 -61 -84 -72q-10 -2 -19 -2q-46 0 -90 41q-27 25 -44 23q-13 -2 -21 -15zM175 185 q0 -35 24 -59t59 -24q34 0 59 24q24 24 24 59v1069q0 35 -24 59q-25 24 -59 24q-35 0 -59 -24t-24 -59v-1069z" />
<glyph unicode="&#xd6;" horiz-adv-x="502" d="M60 185v1069q0 82 58 140t140 58t140 -58t58 -140v-1069q0 -82 -58 -140t-140 -58t-140 58t-58 140zM130 1595q0 -24 17 -41t40 -17q24 0 41 17t17 41q0 23 -17 40t-41 17q-23 0 -40 -17t-17 -40zM175 185q0 -35 24 -59t59 -24q34 0 59 24q24 24 24 59v1069q0 35 -24 59 q-25 24 -59 24q-35 0 -59 -24t-24 -59v-1069zM271 1595q0 -24 17 -41t40 -17q24 0 41 17t17 41q0 23 -17 40t-41 17q-23 0 -40 -17t-17 -40z" />
<glyph unicode="&#xd7;" horiz-adv-x="1014" />
<glyph unicode="&#xd8;" horiz-adv-x="1614" />
<glyph unicode="&#xd9;" horiz-adv-x="502" d="M59 183v1253h115v-1253q0 -34 24 -59q25 -24 59 -24q35 0 59 24q24 25 24 59v1253h115v-1253q0 -82 -58 -140t-140 -58t-140 58t-58 140zM89 1717l153 -246h53l-95 246h-111z" />
<glyph unicode="&#xda;" d="M59 183v1253h115v-1253q0 -34 24 -59q25 -24 59 -24q35 0 59 24q24 25 24 59v1253h115v-1253q0 -82 -58 -140t-140 -58t-140 58t-58 140zM226 1471h54l152 246h-110z" />
<glyph unicode="&#xdb;" horiz-adv-x="502" d="M51 1471h110l96 156l96 -156h110l-151 246h-110zM59 183v1253h115v-1253q0 -34 24 -59q25 -24 59 -24q35 0 59 24q24 25 24 59v1253h115v-1253q0 -82 -58 -140t-140 -58t-140 58t-58 140z" />
<glyph unicode="&#xdc;" d="M59 183v1253h115v-1253q0 -34 24 -59q25 -24 59 -24q35 0 59 24q24 25 24 59v1253h115v-1253q0 -82 -58 -140t-140 -58t-140 58t-58 140zM130 1595q0 -24 17 -41t40 -17q24 0 41 17t17 41q0 23 -17 40t-41 17q-23 0 -40 -17t-17 -40zM271 1595q0 -24 17 -41t40 -17 q24 0 41 17t17 41q0 23 -17 40t-41 17q-23 0 -40 -17t-17 -40z" />
<glyph unicode="&#xdd;" d="M22 1435l172 -813v-622h114v622l172 813h-117l-112 -529l-112 529h-117zM226 1471h54l152 246h-110z" />
<glyph unicode="&#xde;" horiz-adv-x="504" d="M60 0h115v222h83q82 0 140 58t58 140v594q0 82 -58 140t-140 58h-83v222h-115v-1434zM175 336v762h83q34 0 59 -25q24 -24 24 -59v-594q0 -35 -24 -59q-25 -25 -59 -25h-83z" />
<glyph unicode="&#xdf;" d="M63 0h114v1251q0 34 25 58q24 25 59 25q34 0 58 -25q25 -24 25 -58v-415q0 -36 -15 -50q-12 -12 -34 -12h-54v-115h54q22 0 34 -12q15 -14 15 -49v-422q0 -35 -15 -49q-12 -12 -34 -13h-54v-114h54q66 0 112 42q51 48 51 134v422q0 72 -37 119q37 46 37 119v415 q0 81 -58 139t-139 58q-82 0 -140 -58t-58 -139v-1251z" />
<glyph unicode="&#xe0;" d="M59 183q0 -82 58 -140t140 -58q43 0 83 18v-3h114v777q0 82 -58 140t-139 58q-82 0 -140 -58t-58 -140v-55h114v55q0 35 25 59q24 25 59 25q34 0 59 -25q24 -24 24 -59v-100q-39 19 -83 19q-82 0 -140 -58t-58 -140v-315zM89 1434l153 -246h53l-95 246h-111zM173 183v315 q0 34 25 59q24 24 59 24q34 0 59 -24q24 -25 24 -59v-315q0 -35 -24 -59q-25 -25 -59 -25q-35 0 -59 25q-25 24 -25 59z" />
<glyph unicode="&#xe1;" d="M59 183q0 -82 58 -140t140 -58q43 0 83 18v-3h114v777q0 82 -58 140t-139 58q-82 0 -140 -58t-58 -140v-55h114v55q0 35 25 59q24 25 59 25q34 0 59 -25q24 -24 24 -59v-100q-39 19 -83 19q-82 0 -140 -58t-58 -140v-315zM173 183v315q0 34 25 59q24 24 59 24 q34 0 59 -24q24 -25 24 -59v-315q0 -35 -24 -59q-25 -25 -59 -25q-35 0 -59 25q-25 24 -25 59zM226 1188h54l152 246h-110z" />
<glyph unicode="&#xe2;" d="M51 1188h110l96 156l96 -156h110l-151 246h-110zM59 183q0 -82 58 -140t140 -58q43 0 83 18v-3h114v777q0 82 -58 140t-139 58q-82 0 -140 -58t-58 -140v-55h114v55q0 35 25 59q24 25 59 25q34 0 59 -25q24 -24 24 -59v-100q-39 19 -83 19q-82 0 -140 -58t-58 -140v-315z M173 183v315q0 34 25 59q24 24 59 24q34 0 59 -24q24 -25 24 -59v-315q0 -35 -24 -59q-25 -25 -59 -25q-35 0 -59 25q-25 24 -25 59z" />
<glyph unicode="&#xe3;" d="M59 183q0 -82 58 -140t140 -58q43 0 83 18v-3h114v777q0 82 -58 140t-139 58q-82 0 -140 -58t-58 -140v-55h114v55q0 35 25 59q24 25 59 25q34 0 59 -25q24 -24 24 -59v-100q-39 19 -83 19q-82 0 -140 -58t-58 -140v-315zM93 1336q28 48 81 55q57 9 113 -44 q22 -21 35 -18q15 3 25 24l76 -34q-28 -61 -84 -72q-10 -2 -19 -2q-46 0 -90 41q-27 25 -44 23q-13 -2 -21 -15zM173 183v315q0 34 25 59q24 24 59 24q34 0 59 -24q24 -25 24 -59v-315q0 -35 -24 -59q-25 -25 -59 -25q-35 0 -59 25q-25 24 -25 59z" />
<glyph unicode="&#xe4;" horiz-adv-x="502" d="M59 183q0 -82 58 -140t140 -58q43 0 83 18v-3h114v777q0 82 -58 140t-139 58q-82 0 -140 -58t-58 -140v-55h114v55q0 35 25 59q24 25 59 25q34 0 59 -25q24 -24 24 -59v-100q-39 19 -83 19q-82 0 -140 -58t-58 -140v-315zM130 1313q0 -24 17 -41t40 -17q24 0 41 17t17 41 q0 23 -17 40t-41 17q-23 0 -40 -17t-17 -40zM173 183v315q0 34 25 59q24 24 59 24q34 0 59 -24q24 -25 24 -59v-315q0 -35 -24 -59q-25 -25 -59 -25q-35 0 -59 25q-25 24 -25 59zM271 1313q0 -24 17 -41t40 -17q24 0 41 17t17 41q0 23 -17 40t-41 17q-23 0 -40 -17t-17 -40z " />
<glyph unicode="&#xe5;" d="M59 183q0 -82 58 -140t140 -58q43 0 83 18v-3h114v777q0 82 -58 140t-139 58q-82 0 -140 -58t-58 -140v-55h114v55q0 35 25 59q24 25 59 25q34 0 59 -25q24 -24 24 -59v-100q-39 19 -83 19q-82 0 -140 -58t-58 -140v-315zM148 1329q0 44 31 76q32 31 76 31t76 -31 q31 -32 31 -76t-31 -76q-32 -31 -76 -31t-76 31q-31 32 -31 76zM173 183v315q0 34 25 59q24 24 59 24q34 0 59 -24q24 -25 24 -59v-315q0 -35 -24 -59q-25 -25 -59 -25q-35 0 -59 25q-25 24 -25 59zM233 1329q0 -22 22 -22t22 22t-22 22t-22 -22z" />
<glyph unicode="&#xe6;" horiz-adv-x="781" d="M58 184q0 -82 58 -140t140 -58t140 59q59 -59 141 -59t140 58t58 140v57h-115v-57q0 -35 -24 -59q-25 -25 -59 -25t-59 25q-24 24 -24 59v240h281v354q0 82 -58 140t-140 58t-141 -59q-58 59 -140 59t-140 -58t-58 -140v-55h114v55q0 35 25 59q24 25 59 25q34 0 59 -25 q24 -24 24 -59v-100q-39 19 -83 19q-82 0 -140 -58t-58 -140v-315zM172 184v315q0 34 25 59q24 24 59 24q34 0 59 -24q24 -25 24 -59v-315q0 -35 -24 -59q-25 -25 -59 -25q-35 0 -59 25q-25 24 -25 59zM454 538v240q0 35 24 59q25 25 59 25t59 -25q24 -24 24 -59v-240h-166z " />
<glyph unicode="&#xe7;" horiz-adv-x="507" d="M61 186q0 -143 136 -188v-109h44q7 0 7 -7v-45q0 -7 -7 -7h-44v-88h44q39 0 67 28q27 28 27 67v45q0 57 -50 84v24q73 10 122 66q50 56 50 130v58h-115v-58q0 -83 -83 -83t-83 83v595q0 84 83 84t83 -84v-57h115v57q0 82 -58 140t-140 58t-140 -58t-58 -140v-595z" />
<glyph unicode="&#xe8;" d="M60 184v596q0 81 58 139t140 58t140 -58t58 -139v-356h-281v-240q0 -34 24 -59q25 -24 59 -24t59 24q24 25 24 59v57h115v-57q0 -82 -58 -140t-140 -58t-140 58t-58 140zM89 1434l153 -246h53l-95 246h-111zM175 539h166v241q0 34 -24 58q-25 25 -59 25t-59 -25 q-24 -24 -24 -58v-241z" />
<glyph unicode="&#xe9;" horiz-adv-x="502" d="M60 184v596q0 81 58 139t140 58t140 -58t58 -139v-356h-281v-240q0 -34 24 -59q25 -24 59 -24t59 24q24 25 24 59v57h115v-57q0 -82 -58 -140t-140 -58t-140 58t-58 140zM175 539h166v241q0 34 -24 58q-25 25 -59 25t-59 -25q-24 -24 -24 -58v-241zM226 1188h54l152 246 h-110z" />
<glyph unicode="&#xea;" horiz-adv-x="502" d="M51 1188h110l96 156l96 -156h110l-151 246h-110zM60 184v596q0 81 58 139t140 58t140 -58t58 -139v-356h-281v-240q0 -34 24 -59q25 -24 59 -24t59 24q24 25 24 59v57h115v-57q0 -82 -58 -140t-140 -58t-140 58t-58 140zM175 539h166v241q0 34 -24 58q-25 25 -59 25 t-59 -25q-24 -24 -24 -58v-241z" />
<glyph unicode="&#xeb;" d="M60 184v596q0 81 58 139t140 58t140 -58t58 -139v-356h-281v-240q0 -34 24 -59q25 -24 59 -24t59 24q24 25 24 59v57h115v-57q0 -82 -58 -140t-140 -58t-140 58t-58 140zM130 1313q0 -24 17 -41t40 -17q24 0 41 17t17 41q0 23 -17 40t-41 17q-23 0 -40 -17t-17 -40z M175 539h166v241q0 34 -24 58q-25 25 -59 25t-59 -25q-24 -24 -24 -58v-241zM271 1313q0 -24 17 -41t40 -17q24 0 41 17t17 41q0 23 -17 40t-41 17q-23 0 -40 -17t-17 -40z" />
<glyph unicode="&#xec;" horiz-adv-x="233" d="M-78 1434l152 -246h54l-95 246h-111zM59 0v960h115v-960h-115z" />
<glyph unicode="&#xed;" horiz-adv-x="240" d="M59 0v960h115v-960h-115zM92 1188h54l152 246h-110z" />
<glyph unicode="&#xee;" horiz-adv-x="233" d="M-83 1188h110l96 156l96 -156h110l-151 246h-110zM59 0v960h115v-960h-115z" />
<glyph unicode="&#xef;" horiz-adv-x="240" d="M-11 1313q0 -24 17 -41t40 -17q24 0 41 17t17 41q0 23 -17 40t-41 17q-23 0 -40 -17t-17 -40zM59 0v960h115v-960h-115zM130 1313q0 -24 17 -41t40 -17q24 0 41 17t17 41q0 23 -17 40t-41 17q-23 0 -40 -17t-17 -40z" />
<glyph unicode="&#xf0;" horiz-adv-x="537" d="M58 184q0 -82 58 -140t140 -58t140 58t58 140v834q0 107 -97 213h-1l-1 1l130 143h-114l-79 -87q-84 59 -176 59v-114q49 0 98 -30l-106 -116h114l56 60q61 -70 61 -129v-60q-39 19 -83 19q-82 0 -140 -58t-58 -140v-595zM173 184v595q0 34 24 59q24 24 59 24 q34 0 59 -24q24 -25 24 -59v-595q0 -35 -24 -59q-25 -24 -59 -24q-35 0 -59 24t-24 59z" />
<glyph unicode="&#xf1;" horiz-adv-x="516" d="M60 0h114v777q0 35 25 59q24 25 59 25q34 0 59 -25q24 -24 24 -59v-777h114v777q0 82 -58 140t-139 58q-44 0 -84 -18v3h-114v-960zM93 1336q28 48 81 55q57 9 113 -44q22 -21 35 -18q15 3 25 24l76 -34q-28 -61 -84 -72q-10 -2 -19 -2q-46 0 -90 41q-27 25 -44 23 q-13 -2 -21 -15z" />
<glyph unicode="&#xf2;" horiz-adv-x="516" d="M61 182v594q0 82 58 140t140 58q81 0 139 -58t58 -140v-594q0 -82 -58 -140t-139 -58q-82 0 -140 58t-58 140zM89 1434l153 -246h53l-95 246h-111zM175 182q0 -35 25 -59q24 -25 59 -25q34 0 59 25q24 24 24 59v594q0 35 -24 59q-25 25 -59 25q-35 0 -59 -25 q-25 -24 -25 -59v-594z" />
<glyph unicode="&#xf3;" horiz-adv-x="516" d="M61 182v594q0 82 58 140t140 58q81 0 139 -58t58 -140v-594q0 -82 -58 -140t-139 -58q-82 0 -140 58t-58 140zM175 182q0 -35 25 -59q24 -25 59 -25q34 0 59 25q24 24 24 59v594q0 35 -24 59q-25 25 -59 25q-35 0 -59 -25q-25 -24 -25 -59v-594zM226 1188h54l152 246 h-110z" />
<glyph unicode="&#xf4;" horiz-adv-x="516" d="M51 1188h110l96 156l96 -156h110l-151 246h-110zM61 182v594q0 82 58 140t140 58q81 0 139 -58t58 -140v-594q0 -82 -58 -140t-139 -58q-82 0 -140 58t-58 140zM175 182q0 -35 25 -59q24 -25 59 -25q34 0 59 25q24 24 24 59v594q0 35 -24 59q-25 25 -59 25q-35 0 -59 -25 q-25 -24 -25 -59v-594z" />
<glyph unicode="&#xf5;" horiz-adv-x="523" d="M61 182v594q0 82 58 140t140 58q81 0 139 -58t58 -140v-594q0 -82 -58 -140t-139 -58q-82 0 -140 58t-58 140zM93 1336q28 48 81 55q57 9 113 -44q22 -21 35 -18q15 3 25 24l76 -34q-28 -61 -84 -72q-10 -2 -19 -2q-46 0 -90 41q-27 25 -44 23q-13 -2 -21 -15zM175 182 q0 -35 25 -59q24 -25 59 -25q34 0 59 25q24 24 24 59v594q0 35 -24 59q-25 25 -59 25q-35 0 -59 -25q-25 -24 -25 -59v-594z" />
<glyph unicode="&#xf6;" horiz-adv-x="516" d="M61 182v594q0 82 58 140t140 58q81 0 139 -58t58 -140v-594q0 -82 -58 -140t-139 -58q-82 0 -140 58t-58 140zM130 1313q0 -24 17 -41t40 -17q24 0 41 17t17 41q0 23 -17 40t-41 17q-23 0 -40 -17t-17 -40zM175 182q0 -35 25 -59q24 -25 59 -25q34 0 59 25q24 24 24 59 v594q0 35 -24 59q-25 25 -59 25q-35 0 -59 -25q-25 -24 -25 -59v-594zM271 1313q0 -24 17 -41t40 -17q24 0 41 17t17 41q0 23 -17 40t-41 17q-23 0 -40 -17t-17 -40z" />
<glyph unicode="&#xf7;" horiz-adv-x="1014" />
<glyph unicode="&#xf8;" horiz-adv-x="1010" />
<glyph unicode="&#xf9;" d="M59 183q0 -82 58 -140t140 -58q44 0 83 18v-3h115v961h-115v-778q0 -35 -24 -59q-25 -24 -59 -24q-35 0 -59 24t-24 59v778h-115v-778zM89 1434l153 -246h53l-95 246h-111z" />
<glyph unicode="&#xfa;" horiz-adv-x="516" d="M59 183q0 -82 58 -140t140 -58q44 0 83 18v-3h115v961h-115v-778q0 -35 -24 -59q-25 -24 -59 -24q-35 0 -59 24t-24 59v778h-115v-778zM226 1188h54l152 246h-110z" />
<glyph unicode="&#xfb;" horiz-adv-x="516" d="M51 1188h110l96 156l96 -156h110l-151 246h-110zM59 183q0 -82 58 -140t140 -58q44 0 83 18v-3h115v961h-115v-778q0 -35 -24 -59q-25 -24 -59 -24q-35 0 -59 24t-24 59v778h-115v-778z" />
<glyph unicode="&#xfc;" horiz-adv-x="516" d="M59 183q0 -82 58 -140t140 -58q44 0 83 18v-3h115v961h-115v-778q0 -35 -24 -59q-25 -24 -59 -24q-35 0 -59 24t-24 59v778h-115v-778zM130 1313q0 -24 17 -41t40 -17q24 0 41 17t17 41q0 23 -17 40t-41 17q-23 0 -40 -17t-17 -40zM271 1313q0 -24 17 -41t40 -17 q24 0 41 17t17 41q0 23 -17 40t-41 17q-23 0 -40 -17t-17 -40z" />
<glyph unicode="&#xfd;" horiz-adv-x="516" d="M58 182q0 -81 58 -139t140 -58q44 0 83 18v-204q0 -35 -24 -59q-25 -25 -59 -25q-47 0 -71 40l-98 -59q58 -95 169 -95q82 0 140 58t58 140v1161h-115v-778q0 -34 -24 -58q-25 -25 -59 -25q-35 0 -59 25q-24 24 -24 58v778h-115v-778zM226 1188h54l152 246h-110z" />
<glyph unicode="&#xfe;" horiz-adv-x="516" d="M62 0h115v240q39 -18 83 -18q82 0 140 58t58 140v594q0 82 -58 140t-140 58q-44 0 -83 -18v240h-115v-1434zM177 420v594q0 35 24 59q24 25 59 25q34 0 59 -25q24 -24 24 -59v-594q0 -35 -24 -59q-25 -25 -59 -25q-35 0 -59 25q-24 24 -24 59z" />
<glyph unicode="&#xff;" d="M58 182q0 -81 58 -139t140 -58q44 0 83 18v-204q0 -35 -24 -59q-25 -25 -59 -25q-47 0 -71 40l-98 -59q58 -95 169 -95q82 0 140 58t58 140v1161h-115v-778q0 -34 -24 -58q-25 -25 -59 -25q-35 0 -59 25q-24 24 -24 58v778h-115v-778zM130 1313q0 -24 17 -41t40 -17 q24 0 41 17t17 41q0 23 -17 40t-41 17q-23 0 -40 -17t-17 -40zM271 1313q0 -24 17 -41t40 -17q24 0 41 17t17 41q0 23 -17 40t-41 17q-23 0 -40 -17t-17 -40z" />
<glyph unicode="&#x2c6;" d="M51 1188h110l96 156l96 -156h110l-151 246h-110z" />
<glyph unicode="&#x2dc;" horiz-adv-x="1024" />
<glyph unicode="&#x2000;" horiz-adv-x="860" />
<glyph unicode="&#x2001;" horiz-adv-x="1721" />
<glyph unicode="&#x2002;" horiz-adv-x="860" />
<glyph unicode="&#x2003;" horiz-adv-x="1721" />
<glyph unicode="&#x2004;" horiz-adv-x="573" />
<glyph unicode="&#x2005;" horiz-adv-x="430" />
<glyph unicode="&#x2006;" horiz-adv-x="286" />
<glyph unicode="&#x2007;" horiz-adv-x="286" />
<glyph unicode="&#x2008;" horiz-adv-x="215" />
<glyph unicode="&#x2009;" horiz-adv-x="344" />
<glyph unicode="&#x200a;" horiz-adv-x="95" />
<glyph unicode="&#x2010;" horiz-adv-x="636" d="M60 423h523v114h-523v-114z" />
<glyph unicode="&#x2011;" horiz-adv-x="636" d="M60 423h523v114h-523v-114z" />
<glyph unicode="&#x2012;" horiz-adv-x="636" d="M60 423h523v114h-523v-114z" />
<glyph unicode="&#x2013;" horiz-adv-x="1108" />
<glyph unicode="&#x2014;" horiz-adv-x="2048" />
<glyph unicode="&#x2018;" horiz-adv-x="199" d="M13 1071h115v165q-2 71 47 98l-56 100q-106 -59 -106 -198v-165z" />
<glyph unicode="&#x2019;" horiz-adv-x="208" d="M13 1171l56 -100q106 59 106 199v164h-115v-164q1 -72 -47 -99z" />
<glyph unicode="&#x201a;" horiz-adv-x="557" />
<glyph unicode="&#x201c;" horiz-adv-x="375" d="M13 1071h115v165q-2 71 47 98l-56 100q-106 -59 -106 -198v-165zM182 1071h115v165q-2 71 47 98l-56 100q-106 -59 -106 -198v-165z" />
<glyph unicode="&#x201d;" horiz-adv-x="375" d="M13 1171l56 -100q106 59 106 199v164h-115v-164q1 -72 -47 -99zM182 1171l56 -100q106 59 106 199v164h-115v-164q1 -72 -47 -99z" />
<glyph unicode="&#x201e;" horiz-adv-x="910" />
<glyph unicode="&#x2022;" horiz-adv-x="240" d="M59 481q0 -24 17 -41t40 -17q24 0 41 17t17 41q0 23 -17 40t-41 17q-23 0 -40 -17t-17 -40z" />
<glyph unicode="&#x2026;" horiz-adv-x="2048" />
<glyph unicode="&#x202f;" horiz-adv-x="344" />
<glyph unicode="&#x2039;" horiz-adv-x="480" d="M58 480l213 -183h155l-214 183l214 183h-155z" />
<glyph unicode="&#x203a;" horiz-adv-x="481" d="M58 297h154l214 183l-214 183h-154l213 -183z" />
<glyph unicode="&#x205f;" horiz-adv-x="430" />
<glyph unicode="&#x20ac;" horiz-adv-x="492" d="M63 534h41v-351q0 -82 58 -140t140 -58q111 0 169 95l-98 60q-24 -40 -71 -40q-34 0 -59 24q-24 24 -24 59v351h113l24 114h-137v75h153l25 115h-178v414q0 34 24 59q25 24 59 24q47 0 71 -40l98 59q-58 96 -169 96q-82 0 -140 -58t-58 -140v-414h-41v-115h41v-75h-41 v-114z" />
<glyph unicode="&#x2122;" horiz-adv-x="1497" />
<glyph unicode="&#x25fc;" horiz-adv-x="960" d="M0 0v960h960v-960h-960z" />
</font>
</defs>
</svg>
